<svg xmlns="http://www.w3.org/2000/svg" version="1.1" xmlns:xlink="http://www.w3.org/1999/xlink" xmlns:svgjs="http://svgjs.dev/svgjs" width="1440" height="560" preserveAspectRatio="none" viewBox="0 0 1440 560"><g mask="url(&quot;#SvgjsMask1006&quot;)" fill="none"><rect width="1440" height="560" x="0" y="0" fill="rgba(14, 42, 71, 0.03)"></rect><path d="M0,645.856C117.226,626.54,187.856,511.678,291.427,453.47C404.066,390.166,559.454,395.074,634.002,289.539C710.609,181.089,717.586,29.711,680.901,-97.899C645.939,-219.515,541.973,-305.89,440.929,-382.067C354.83,-446.976,249.041,-465.768,146.944,-500.445C39.706,-536.869,-63.456,-617.692,-173.458,-590.744C-284.059,-563.649,-349.605,-453.226,-417.863,-362.08C-481.928,-276.533,-521.51,-181.102,-555.992,-79.94C-597.955,43.171,-679.032,168.364,-641.073,292.768C-602.536,419.064,-476.119,497.178,-360.457,560.882C-250.092,621.668,-124.322,666.341,0,645.856" fill="rgba(11, 34, 57, 0.03)"></path><path d="M1440 912.4739999999999C1507.887 909.098 1574.023 894.149 1632.745 859.9169999999999 1693.304 824.614 1762.566 782.968 1779.036 714.832 1795.3980000000001 647.143 1740.776 585.102 1714.7939999999999 520.491 1695.1390000000001 471.615 1672.593 427.178 1645.252 382.148 1612.077 327.51 1593.962 258.073 1537.392 228.313 1478.149 197.147 1402.648 196.485 1340.74 221.95100000000002 1280.782 246.615 1247.57 308.188 1211.787 362.252 1180.039 410.21799999999996 1147.654 460.131 1145.061 517.594 1142.579 572.6 1184.6680000000001 617.12 1197.875 670.575 1215.202 740.707 1183.423 828.662 1234.529 879.72 1284.608 929.752 1369.298 915.99 1440 912.4739999999999" fill="rgba(17, 50, 85, 0.03)"></path></g><defs><mask id="SvgjsMask1006"><rect width="1440" height="560" fill="#ffffff"></rect></mask></defs></svg>